<svg width="2434" height="753" viewBox="0 0 2434 753" fill="none" xmlns="http://www.w3.org/2000/svg">
<path d="M17.5 125H51.5V300H17.5V125ZM90.3418 125H202.342L232.342 155V270L202.342 300H90.3418V125ZM185.592 271L198.342 258.25V166.75L185.592 154H124.342V271H185.592ZM267.461 125H393.961V153.75H301.461V198H386.711V226.25H301.461V271.25H393.961V300H267.461V125ZM473.072 125H504.072L568.072 300H533.572L519.322 261.25H457.822L443.572 300H409.072L473.072 125ZM511.822 233.25L488.572 166.75H488.072L465.572 233.25H511.822ZM590.693 125H624.693V271.25H712.193V300H590.693V125ZM805.195 273V248H838.695V262.75L846.945 271H898.695L907.195 262.5V233.5L898.945 225.25H832.695L805.695 198.25V152L832.695 125H911.695L938.695 152V177.25H905.195V162.25L896.945 154H847.445L839.195 162.25V188L847.445 196.25H913.695L940.695 223.25V272.5L913.195 300H832.195L805.195 273ZM1006.53 153.75H954.277V125H1092.78V153.75H1040.53V300H1006.53V153.75ZM1255.27 242V300H1221.27V249.75L1206.27 233H1151.77V300H1117.77V125H1227.52L1254.27 152V205L1237.27 222.25L1255.27 242ZM1151.77 205H1212.02L1220.77 196.25V162.25L1212.02 153.5H1151.77V205ZM1291.47 125H1417.97V153.75H1325.47V198H1410.72V226.25H1325.47V271.25H1417.97V300H1291.47V125ZM1448.09 125H1478.59L1556.59 243.75H1557.09V125H1589.84V300H1559.34L1481.34 181.5H1480.84V300H1448.09V125ZM1624.9 271.25V153.75L1653.65 125H1740.65L1768.9 153.25V180H1734.9V165.75L1723.15 154H1671.65L1658.9 166.75V258.25L1671.65 271H1723.65L1735.9 258.75V231.5H1698.4V202.5H1768.9V271.25L1740.15 300H1653.65L1624.9 271.25ZM1839.88 153.75H1787.63V125H1926.13V153.75H1873.88V300H1839.88V153.75ZM1951.12 125H1985.12V198.25H2059.12V125H2093.12V300H2059.12V227.25H1985.12V300H1951.12V125ZM13.75 596.25V478.75L42.5 450H128L156.25 478.25V505H122.25V490.75L110.5 479H60.5L47.75 491.75V583.25L60.5 596H110.5L122.25 584.25V570H156.25V596.75L128 625H42.5L13.75 596.25ZM232.848 450H263.848L327.848 625H293.348L279.098 586.25H217.598L203.348 625H168.848L232.848 450ZM271.598 558.25L248.348 491.75H247.848L225.348 558.25H271.598ZM350.469 450H384.469V596.25H471.969V625H350.469V450ZM489.443 596.25V478.75L518.193 450H603.693L631.943 478.25V505H597.943V490.75L586.193 479H536.193L523.443 491.75V583.25L536.193 596H586.193L597.943 584.25V570H631.943V596.75L603.693 625H518.193L489.443 596.25ZM660.762 595V450H694.762V583.25L707.512 596H756.512L769.262 583.25V450H803.262V595L773.262 625H690.762L660.762 595ZM840.811 450H874.811V596.25H962.311V625H840.811V450ZM1034.95 450H1065.95L1129.95 625H1095.45L1081.2 586.25H1019.7L1005.45 625H970.947L1034.95 450ZM1073.7 558.25L1050.45 491.75H1049.95L1027.45 558.25H1073.7ZM1169.86 478.75H1117.61V450H1256.11V478.75H1203.86V625H1169.86V478.75ZM1274.94 596.25V478.75L1303.69 450H1393.69L1422.44 478.75V596.25L1393.69 625H1303.69L1274.94 596.25ZM1375.69 596L1388.44 583.25V491.75L1375.69 479H1321.69L1308.94 491.75V583.25L1321.69 596H1375.69ZM1594.99 567V625H1560.99V574.75L1545.99 558H1491.49V625H1457.49V450H1567.24L1593.99 477V530L1576.99 547.25L1594.99 567ZM1491.49 530H1551.74L1560.49 521.25V487.25L1551.74 478.5H1491.49V530Z" fill="black"/>
</svg>
