<svg width="1415" height="1415" viewBox="0 0 1415 1415" fill="none" xmlns="http://www.w3.org/2000/svg">
<mask id="path-1-inside-1_2_27" fill="white">
<path d="M353.554 353.554C426.615 280.492 520.516 231.86 622.345 214.344L647.774 362.173C576.494 374.434 510.762 408.477 459.62 459.62L353.554 353.554Z"/>
</mask>
<path d="M353.554 353.554C426.615 280.492 520.516 231.86 622.345 214.344L647.774 362.173C576.494 374.434 510.762 408.477 459.62 459.62L353.554 353.554Z" fill="black" stroke="black" stroke-width="40" mask="url(#path-1-inside-1_2_27)"/>
<mask id="path-2-inside-2_2_27" fill="white">
<path d="M707.107 207.107C810.431 207.107 911.218 239.117 995.607 298.735L909.057 421.247C849.985 379.514 779.434 357.107 707.107 357.107L707.107 207.107Z"/>
</mask>
<path d="M707.107 207.107C810.431 207.107 911.218 239.117 995.607 298.735L909.057 421.247C849.985 379.514 779.434 357.107 707.107 357.107L707.107 207.107Z" stroke="black" stroke-width="40" mask="url(#path-2-inside-2_2_27)"/>
<mask id="path-3-inside-3_2_27" fill="white">
<path d="M1060.66 353.553C1133.72 426.615 1182.35 520.516 1199.87 622.345L1052.04 647.774C1039.78 576.494 1005.74 510.762 954.594 459.62L1060.66 353.553Z"/>
</mask>
<path d="M1060.66 353.553C1133.72 426.615 1182.35 520.516 1199.87 622.345L1052.04 647.774C1039.78 576.494 1005.74 510.762 954.594 459.62L1060.66 353.553Z" stroke="black" stroke-width="40" mask="url(#path-3-inside-3_2_27)"/>
<mask id="path-4-inside-4_2_27" fill="white">
<path d="M1207.11 707.107C1207.11 810.431 1175.1 911.218 1115.48 995.608L992.967 909.057C1034.7 849.985 1057.11 779.434 1057.11 707.107L1207.11 707.107Z"/>
</mask>
<path d="M1207.11 707.107C1207.11 810.431 1175.1 911.218 1115.48 995.608L992.967 909.057C1034.7 849.985 1057.11 779.434 1057.11 707.107L1207.11 707.107Z" fill="black" stroke="black" stroke-width="40" mask="url(#path-4-inside-4_2_27)"/>
<mask id="path-5-inside-5_2_27" fill="white">
<path d="M1060.66 1060.66C987.599 1133.72 893.697 1182.35 791.869 1199.87L766.44 1052.04C837.72 1039.78 903.451 1005.74 954.594 954.594L1060.66 1060.66Z"/>
</mask>
<path d="M1060.66 1060.66C987.599 1133.72 893.697 1182.35 791.869 1199.87L766.44 1052.04C837.72 1039.78 903.451 1005.74 954.594 954.594L1060.66 1060.66Z" fill="black" stroke="black" stroke-width="40" mask="url(#path-5-inside-5_2_27)"/>
<mask id="path-6-inside-6_2_27" fill="white">
<path d="M707.107 1207.11C603.783 1207.11 502.996 1175.1 418.606 1115.48L505.156 992.967C564.229 1034.7 634.78 1057.11 707.107 1057.11L707.107 1207.11Z"/>
</mask>
<path d="M707.107 1207.11C603.783 1207.11 502.996 1175.1 418.606 1115.48L505.156 992.967C564.229 1034.7 634.78 1057.11 707.107 1057.11L707.107 1207.11Z" fill="black" stroke="black" stroke-width="40" mask="url(#path-6-inside-6_2_27)"/>
<mask id="path-7-inside-7_2_27" fill="white">
<path d="M353.554 1060.66C280.492 987.599 231.86 893.697 214.344 791.869L362.173 766.44C374.434 837.72 408.477 903.451 459.62 954.594L353.554 1060.66Z"/>
</mask>
<path d="M353.554 1060.66C280.492 987.599 231.86 893.697 214.344 791.869L362.173 766.44C374.434 837.72 408.477 903.451 459.62 954.594L353.554 1060.66Z" fill="black" stroke="black" stroke-width="40" mask="url(#path-7-inside-7_2_27)"/>
<mask id="path-8-inside-8_2_27" fill="white">
<path d="M207.107 707.107C207.107 603.783 239.117 502.996 298.735 418.606L421.247 505.157C379.514 564.229 357.107 634.78 357.107 707.107L207.107 707.107Z"/>
</mask>
<path d="M207.107 707.107C207.107 603.783 239.117 502.996 298.735 418.606L421.247 505.157C379.514 564.229 357.107 634.78 357.107 707.107L207.107 707.107Z" fill="black" stroke="black" stroke-width="40" mask="url(#path-8-inside-8_2_27)"/>
</svg>
